<?xml version="1.0" encoding="UTF-8" standalone="no"?>
<!DOCTYPE svg PUBLIC "-//W3C//DTD SVG 1.1//EN" "http://www.w3.org/Graphics/SVG/1.1/DTD/svg11.dtd">
<svg width="100%" height="100%" viewBox="0 0 24 26" version="1.1" xmlns="http://www.w3.org/2000/svg" xmlns:xlink="http://www.w3.org/1999/xlink" xml:space="preserve" xmlns:serif="http://www.serif.com/" style="fill-rule:evenodd;clip-rule:evenodd;stroke-linecap:round;stroke-linejoin:round;">
    <g transform="matrix(1,0,0,1,-0.000282872,1.97632)">
        <path d="M7,17C6.999,17 6.997,17 6.996,17C4.801,17 2.996,15.194 2.996,13C2.996,11.135 4.3,9.505 6.12,9.097C6.046,8.752 6.009,8.401 6.009,8.048C6.009,5.305 8.266,3.047 11.01,3.047C13.359,3.047 15.407,4.703 15.9,7C15.9,7 16.003,7 16.005,7C18.748,7 21.005,9.257 21.005,12C21.005,14.369 19.322,16.429 17,16.9M15,12L12,9M12,9L9,12M12,9L12,19" style="fill:none;fill-rule:nonzero;stroke:black;stroke-width:2px;"/>
    </g>
</svg>
